<svg width="14" height="14" viewBox="0 0 14 14" fill="none" xmlns="http://www.w3.org/2000/svg">
<g clip-path="url(#clip0)">
<path d="M0.349954 0.349075C0.573906 0.125191 0.877609 -0.000579834 1.19428 -0.000579834C1.51095 -0.000579834 1.81465 0.125191 2.0386 0.349075L11.6116 9.92265V3.98074C11.6116 3.82391 11.6425 3.66862 11.7025 3.52373C11.7625 3.37884 11.8505 3.24718 11.9614 3.13629C12.0723 3.02539 12.2039 2.93743 12.3488 2.87741C12.4937 2.8174 12.649 2.78651 12.8058 2.78651C12.9626 2.78651 13.1179 2.8174 13.2628 2.87741C13.4077 2.93743 13.5394 3.02539 13.6503 3.13629C13.7612 3.24718 13.8491 3.37884 13.9091 3.52373C13.9692 3.66862 14 3.82391 14 3.98074V12.8055V13.9998H12.8058H3.98162C3.66489 13.9998 3.36113 13.8739 3.13717 13.65C2.9132 13.426 2.78738 13.1223 2.78738 12.8055C2.78738 12.4888 2.9132 12.185 3.13717 11.9611C3.36113 11.7371 3.66489 11.6113 3.98162 11.6113H9.92293L0.349954 2.03832C0.239008 1.92742 0.150998 1.79574 0.090952 1.65082C0.0309059 1.5059 0 1.35057 0 1.1937C0 1.03683 0.0309059 0.881494 0.090952 0.736572C0.150998 0.591649 0.239008 0.459977 0.349954 0.349075Z" fill="white"/>
</g>
<defs>
<clipPath id="clip0">
<rect width="14" height="14" fill="white"/>
</clipPath>
</defs>
</svg>
