<svg width="98" height="112" viewBox="0 0 98 112" fill="none" xmlns="http://www.w3.org/2000/svg">
<path d="M97.6921 62.0879C97.3283 61.2155 96.4791 60.6463 95.5369 60.6463H69.9768V2.33263C69.9768 1.04506 68.9318 0 67.6442 0H30.3233C29.0357 0 27.9906 1.04506 27.9906 2.33263V60.6466H2.33261C1.39033 60.6466 0.541205 61.2158 0.177326 62.0835C-0.18196 62.9558 0.0139739 63.9589 0.681157 64.626L47.2156 111.314C47.6541 111.753 48.2467 112 48.8671 112C49.4874 112 50.0801 111.753 50.5185 111.319L97.1883 64.6306C97.8555 63.9632 98.056 62.9604 97.6921 62.0879Z" fill="white"/>
</svg>
