<svg width="455" height="455" viewBox="0 0 455 455" fill="none" xmlns="http://www.w3.org/2000/svg">
<g filter="url(#filter0_d)">
<path d="M355.742 134.492L300.508 79.2576C294.58 73.3301 286.541 70 278.158 70H101.607C84.1508 70 70 84.1508 70 101.607V333.393C70 350.849 84.1508 365 101.607 365H333.393C350.849 365 365 350.849 365 333.393V156.842C365 148.459 361.67 140.42 355.742 134.492ZM217.5 322.857C194.225 322.857 175.357 303.989 175.357 280.714C175.357 257.44 194.225 238.571 217.5 238.571C240.775 238.571 259.643 257.44 259.643 280.714C259.643 303.989 240.775 322.857 217.5 322.857ZM280.714 122.336V188.527C280.714 192.891 277.176 196.429 272.812 196.429H120.045C115.681 196.429 112.143 192.891 112.143 188.527V120.045C112.143 115.681 115.681 112.143 120.045 112.143H270.521C272.617 112.143 274.627 112.975 276.108 114.457L278.4 116.749C279.133 117.483 279.716 118.354 280.113 119.312C280.51 120.271 280.714 121.298 280.714 122.336Z" fill="white"/>
</g>
<defs>
<filter id="filter0_d" x="0" y="0" width="455" height="455" filterUnits="userSpaceOnUse" color-interpolation-filters="sRGB">
<feFlood flood-opacity="0" result="BackgroundImageFix"/>
<feColorMatrix in="SourceAlpha" type="matrix" values="0 0 0 0 0 0 0 0 0 0 0 0 0 0 0 0 0 0 127 0"/>
<feOffset dx="10" dy="10"/>
<feGaussianBlur stdDeviation="40"/>
<feColorMatrix type="matrix" values="0 0 0 0 0 0 0 0 0 0 0 0 0 0 0 0 0 0 0.3 0"/>
<feBlend mode="normal" in2="BackgroundImageFix" result="effect1_dropShadow"/>
<feBlend mode="normal" in="SourceGraphic" in2="effect1_dropShadow" result="shape"/>
</filter>
</defs>
</svg>
