<svg width="39" height="39" viewBox="0 0 39 39" fill="none" xmlns="http://www.w3.org/2000/svg">
<g filter="url(#filter0_d)">
<path fill-rule="evenodd" clip-rule="evenodd" d="M21.7914 19.4999L28.7789 12.5287H28.7789C29.4161 11.8915 29.4161 10.8584 28.7789 10.2212C28.1417 9.58399 27.1086 9.58399 26.4714 10.2212L19.5001 17.2087L12.5289 10.2212C11.8917 9.58399 10.8586 9.58399 10.2214 10.2212C9.5842 10.8584 9.5842 11.8915 10.2214 12.5287L17.2089 19.4999L10.2214 26.4712C9.5842 27.1032 9.57998 28.1321 10.212 28.7693C10.2151 28.7724 10.2182 28.7756 10.2214 28.7787C10.8534 29.4159 11.8823 29.4201 12.5195 28.7881C12.5226 28.785 12.5258 28.7818 12.5289 28.7787L19.5001 21.7912L26.4714 28.7787C27.1034 29.4159 28.1323 29.4201 28.7695 28.7881C28.7726 28.785 28.7758 28.7818 28.7789 28.7787C29.4161 28.1467 29.4203 27.1178 28.7883 26.4806C28.7852 26.4775 28.782 26.4743 28.7789 26.4712L21.7914 19.4999Z" fill="white"/>
</g>
<defs>
<filter id="filter0_d" x="-4" y="0" width="47" height="47" filterUnits="userSpaceOnUse" color-interpolation-filters="sRGB">
<feFlood flood-opacity="0" result="BackgroundImageFix"/>
<feColorMatrix in="SourceAlpha" type="matrix" values="0 0 0 0 0 0 0 0 0 0 0 0 0 0 0 0 0 0 127 0"/>
<feOffset dy="4"/>
<feGaussianBlur stdDeviation="2"/>
<feColorMatrix type="matrix" values="0 0 0 0 0 0 0 0 0 0 0 0 0 0 0 0 0 0 0.25 0"/>
<feBlend mode="normal" in2="BackgroundImageFix" result="effect1_dropShadow"/>
<feBlend mode="normal" in="SourceGraphic" in2="effect1_dropShadow" result="shape"/>
</filter>
</defs>
</svg>
