<svg width="50" height="112" viewBox="0 0 50 112" fill="none" xmlns="http://www.w3.org/2000/svg">
<path d="M47.962 99.536L46.403 105.909C41.726 107.755 37.99 109.16 35.208 110.126C32.423 111.095 29.187 111.577 25.5 111.577C19.838 111.577 15.434 110.19 12.293 107.435C9.152 104.669 7.581 101.164 7.581 96.912C7.581 95.266 7.695 93.573 7.932 91.848C8.171 90.121 8.551 88.176 9.071 86.002L14.916 65.314C15.436 63.333 15.878 61.456 16.232 59.681C16.591 57.917 16.764 56.294 16.764 54.833C16.764 52.191 16.217 50.343 15.128 49.304C14.039 48.268 11.961 47.742 8.876 47.742C7.365 47.742 5.812 47.984 4.229 48.452C2.639 48.922 1.28 49.376 0.139 49.798L1.702 43.42C5.531 41.861 9.191 40.526 12.692 39.418C16.193 38.307 19.501 37.751 22.63 37.751C28.253 37.751 32.592 39.11 35.639 41.828C38.686 44.548 40.209 48.074 40.209 52.419C40.209 53.318 40.109 54.902 39.894 57.166C39.684 59.435 39.293 61.514 38.723 63.405L32.903 84.01C32.426 85.665 31.997 87.557 31.624 89.686C31.239 91.801 31.055 93.417 31.055 94.501C31.055 97.237 31.665 99.105 32.888 100.098C34.12 101.091 36.242 101.585 39.256 101.585C40.671 101.585 42.281 101.334 44.07 100.841C45.854 100.348 47.155 99.915 47.962 99.536ZM49.438 13.03C49.438 16.62 48.085 19.686 45.366 22.207C42.654 24.737 39.386 26.003 35.563 26.003C31.728 26.003 28.452 24.737 25.709 22.207C22.971 19.685 21.599 16.62 21.599 13.03C21.599 9.447 22.971 6.376 25.709 3.823C28.447 1.274 31.729 0 35.563 0C39.385 0 42.654 1.277 45.366 3.823C48.087 6.376 49.438 9.448 49.438 13.03Z" fill="black"/>
</svg>
