<svg width="455" height="455" viewBox="0 0 455 455" fill="none" xmlns="http://www.w3.org/2000/svg">
<g filter="url(#filter0_d)">
<path d="M343.929 185.893H249.107V91.0714C249.107 79.436 239.671 70 228.036 70H206.964C195.329 70 185.893 79.436 185.893 91.0714V185.893H91.0714C79.436 185.893 70 195.329 70 206.964V228.036C70 239.671 79.436 249.107 91.0714 249.107H185.893V343.929C185.893 355.564 195.329 365 206.964 365H228.036C239.671 365 249.107 355.564 249.107 343.929V249.107H343.929C355.564 249.107 365 239.671 365 228.036V206.964C365 195.329 355.564 185.893 343.929 185.893Z" fill="white"/>
</g>
<defs>
<filter id="filter0_d" x="0" y="0" width="455" height="455" filterUnits="userSpaceOnUse" color-interpolation-filters="sRGB">
<feFlood flood-opacity="0" result="BackgroundImageFix"/>
<feColorMatrix in="SourceAlpha" type="matrix" values="0 0 0 0 0 0 0 0 0 0 0 0 0 0 0 0 0 0 127 0"/>
<feOffset dx="10" dy="10"/>
<feGaussianBlur stdDeviation="40"/>
<feColorMatrix type="matrix" values="0 0 0 0 0 0 0 0 0 0 0 0 0 0 0 0 0 0 0.3 0"/>
<feBlend mode="normal" in2="BackgroundImageFix" result="effect1_dropShadow"/>
<feBlend mode="normal" in="SourceGraphic" in2="effect1_dropShadow" result="shape"/>
</filter>
</defs>
</svg>
