<svg width="497" height="455" viewBox="0 0 497 455" fill="none" xmlns="http://www.w3.org/2000/svg">
<g filter="url(#filter0_d)">
<path d="M407 143.75V333.393C407 350.843 392.849 365 375.406 365H101.594C84.1514 365 70 350.843 70 333.393V143.75C70 126.3 84.1514 112.143 101.594 112.143H159.516L167.612 90.4788C172.219 78.1652 184.001 70 197.165 70H279.769C292.933 70 304.715 78.1652 309.323 90.4788L317.484 112.143H375.406C392.849 112.143 407 126.3 407 143.75ZM317.484 238.571C317.484 194.98 282.073 159.554 238.5 159.554C194.927 159.554 159.516 194.98 159.516 238.571C159.516 282.163 194.927 317.589 238.5 317.589C282.073 317.589 317.484 282.163 317.484 238.571ZM296.422 238.571C296.422 270.508 270.423 296.518 238.5 296.518C206.577 296.518 180.578 270.508 180.578 238.571C180.578 206.635 206.577 180.625 238.5 180.625C270.423 180.625 296.422 206.635 296.422 238.571Z" fill="white"/>
</g>
<defs>
<filter id="filter0_d" x="0" y="0" width="497" height="455" filterUnits="userSpaceOnUse" color-interpolation-filters="sRGB">
<feFlood flood-opacity="0" result="BackgroundImageFix"/>
<feColorMatrix in="SourceAlpha" type="matrix" values="0 0 0 0 0 0 0 0 0 0 0 0 0 0 0 0 0 0 127 0"/>
<feOffset dx="10" dy="10"/>
<feGaussianBlur stdDeviation="40"/>
<feColorMatrix type="matrix" values="0 0 0 0 0 0 0 0 0 0 0 0 0 0 0 0 0 0 0.3 0"/>
<feBlend mode="normal" in2="BackgroundImageFix" result="effect1_dropShadow"/>
<feBlend mode="normal" in="SourceGraphic" in2="effect1_dropShadow" result="shape"/>
</filter>
</defs>
</svg>
